# xmcd
# 
# Track frame offsets:
#     150
#     25033
#     38964
#     64448
#     83263
#     116061
#     121849
#     148684
#     174981
#     187493
#     212762
#     237248
# 
# Disc length: 3539
# 
# Revision: 1
# Processed by: cddbd v1.5.2PL0 Copyright (c) Steve Scherf et al.
# Submitted via: BonkEnc v1.0.8
# 
DISCID=a80dd10c
DTITLE=JazzDuo David Timm and Reiko Brockelt - Visions. J.S. Bach. organ works. adaptions
DYEAR=2004
DGENRE=Jazz
TTITLE0=WK | CM David Timm (J.S.Bach:Praeludium et Fuga BWV 543)
TTITLE1=Praeludium
TTITLE2=Fuga
TTITLE3=a-m-Samba
TTITLE4=WK | E David Timm
TTITLE5=J.S.Bach: Christ ist erstanden
TTITLE6=Christ ist erstanden (David Timm)
TTITLE7=WK | C#m (David Timm)
TTITLE8=Toccata (Bach: Toccata et Fuga BWV 565)
TTITLE9=Fuga (Bach: Toccata et Fuga BWV 565)
TTITLE10=d-m-Swing (David Timm)
TTITLE11=d-m-Samba (David Timm)
EXTD=YEAR: 2004
EXTT0=
EXTT1=
EXTT2=
EXTT3=
EXTT4=
EXTT5=
EXTT6=
EXTT7=
EXTT8=
EXTT9=
EXTT10=
EXTT11=
PLAYORDER=
